<svg xmlns="http://www.w3.org/2000/svg" xmlns:xlink="http://www.w3.org/1999/xlink" width="1302" height="947" viewBox="0 0 1302 947">
  <defs>
    <filter id="Sustracción_1" x="170" y="0" width="158" height="666" filterUnits="userSpaceOnUse">
      <feOffset dy="3" input="SourceAlpha"/>
      <feGaussianBlur stdDeviation="3" result="blur"/>
      <feFlood flood-opacity="0.439"/>
      <feComposite operator="in" in2="blur"/>
      <feComposite in="SourceGraphic"/>
    </filter>
    <filter id="Sustracción_2" x="993" y="0" width="158" height="666" filterUnits="userSpaceOnUse">
      <feOffset dy="3" input="SourceAlpha"/>
      <feGaussianBlur stdDeviation="3" result="blur-2"/>
      <feFlood flood-opacity="0.439"/>
      <feComposite operator="in" in2="blur-2"/>
      <feComposite in="SourceGraphic"/>
    </filter>
    <filter id="bichoapp" x="0" y="689" width="1302" height="258" filterUnits="userSpaceOnUse">
      <feOffset dy="3" input="SourceAlpha"/>
      <feGaussianBlur stdDeviation="3" result="blur-3"/>
      <feFlood flood-opacity="0.439"/>
      <feComposite operator="in" in2="blur-3"/>
      <feComposite in="SourceGraphic"/>
    </filter>
  </defs>
  <g id="Grupo_1" data-name="Grupo 1" transform="translate(-309 -71)">
    <rect id="Rectángulo_8" data-name="Rectángulo 8" width="108" height="354" rx="54" transform="translate(416 224)" fill="#393939"/>
    <rect id="Rectángulo_9" data-name="Rectángulo 9" width="108" height="354" rx="54" transform="translate(1401 224)" fill="#393939"/>
    <g transform="matrix(1, 0, 0, 1, 309, 71)" filter="url(#Sustracción_1)">
      <path id="Sustracción_1-2" data-name="Sustracción 1" d="M143,648a69.942,69.942,0,0,1-70-70V520.748A76.342,76.342,0,0,0,131,446.5v-245a76.343,76.343,0,0,0-58-74.248V70a70,70,0,1,1,140,0V578a69.942,69.942,0,0,1-70,70Z" transform="translate(106 6)" fill="#393939"/>
    </g>
    <g transform="matrix(1, 0, 0, 1, 309, 71)" filter="url(#Sustracción_2)">
      <path id="Sustracción_2-2" data-name="Sustracción 2" d="M70,648A69.942,69.942,0,0,1,0,578V70A70.019,70.019,0,0,1,134.5,42.753,69.563,69.563,0,0,1,140,70v55a76.685,76.685,0,0,0-76,76.5v245A76.685,76.685,0,0,0,140,523v55a69.942,69.942,0,0,1-70,70Z" transform="translate(1002 6)" fill="#393939"/>
    </g>
    <rect id="Rectángulo_5" data-name="Rectángulo 5" width="683" height="90" transform="translate(628 356)" fill="#0a98c0"/>
    <g transform="matrix(1, 0, 0, 1, 309, 71)" filter="url(#bichoapp)">
      <text id="bichoapp-2" data-name="bichoapp" transform="translate(9 895)" fill="#0a98c0" font-size="200" font-family="GoodTimesRg-Regular, Good Times"><tspan x="0" y="0">BICHOAPP</tspan></text>
    </g>
    <line id="Línea_1" data-name="Línea 1" y2="140" transform="translate(1454.5 331.5)" fill="none" stroke="#0a98c0" stroke-linecap="round" stroke-width="4"/>
    <line id="Línea_2" data-name="Línea 2" y2="140" transform="translate(469.5 331.5)" fill="none" stroke="#0a98c0" stroke-linecap="round" stroke-width="4"/>
    <line id="Línea_3" data-name="Línea 3" x2="170" transform="translate(877.5 402.5)" fill="none" stroke="#fff" stroke-linecap="round" stroke-width="5"/>
  </g>
</svg>
